# xmcd CD database file
#
# Track frame offsets:
#	150
#	28694
#	68304
#	105211
#	138554
#	178276
#	212034
#	249386
#
# Disc length: 3892 seconds
#
# Revision: 0
# Processed by: cddbd v1.5.2PL0 Copyright (c) Steve Scherf et al.
# Submitted via: CDex 1.51
#
DISCID=670f3208
DTITLE=Klas Lindquist nonet - You need it
DYEAR=2010
DGENRE=Jazz
TTITLE0=Abstract blues
TTITLE1=The mooche
TTITLE2=You need it
TTITLE3=You´re my everything
TTITLE4=John´s bounce
TTITLE5=For example
TTITLE6=Camel ride
TTITLE7=The intinacy of the blues
EXTD=YEAR: 2010
EXTT0=
EXTT1=
EXTT2=
EXTT3=
EXTT4=
EXTT5=
EXTT6=
EXTT7=
PLAYORDER=
